<svg height='100px' width='100px'  fill="#ffffff" xmlns="http://www.w3.org/2000/svg" xmlns:xlink="http://www.w3.org/1999/xlink" version="1.1" x="0px" y="0px" viewBox="0 0 100 100" style="enable-background:new 0 0 100 100;" xml:space="preserve"><style type="text/css">
	.st0{fill:#ffffff;}
	.st1{fill:#ffffff;stroke:#ffffff;stroke-linecap:round;stroke-linejoin:round;stroke-miterlimit:10;}
	.st2{fill:#ffffff;stroke:#ffffff;stroke-width:1.5;}
	.st3{fill:none;stroke:#ffffff;stroke-width:1.5;}
	.st4{fill:url(#SVGID_1_);}
	.st5{fill:#ffffff;}
	.st6{fill:#ffffff;}
	.st7{fill:none;stroke:#ffffff;stroke-miterlimit:10;}
	.st8{fill:#ffffff;}
	.st9{fill:none;stroke:#ffffff;stroke-width:2;stroke-linecap:round;stroke-linejoin:round;stroke-miterlimit:10;}
	.st10{fill:none;stroke:#ffffff;stroke-width:2;stroke-linecap:round;stroke-linejoin:round;stroke-miterlimit:10;}
	.st11{fill:none;stroke:#ffffff;stroke-width:2;stroke-linecap:round;stroke-linejoin:round;stroke-miterlimit:10;}
	.st12{fill:none;stroke:#ffffff;stroke-width:3;stroke-linecap:round;stroke-linejoin:round;stroke-miterlimit:10;}
	.st13{fill:none;stroke:#ffffff;stroke-width:2;stroke-linejoin:round;stroke-miterlimit:10;}
	.st14{fill:none;stroke:#ffffff;stroke-width:2;stroke-miterlimit:10;}
	.st15{fill:none;stroke:#ffffff;stroke-width:5;stroke-miterlimit:10;}
	.st16{fill:none;stroke:#ffffff;stroke-width:5;stroke-miterlimit:10;}
	.st17{fill:none;stroke:#ffffff;stroke-width:5;stroke-linecap:round;stroke-linejoin:round;stroke-miterlimit:10;}
	.st18{fill:none;stroke:#ffffff;stroke-width:10;stroke-linecap:round;stroke-linejoin:round;stroke-miterlimit:10;}
	.st19{fill:none;stroke:#ffffff;stroke-width:5;stroke-linecap:round;stroke-linejoin:round;stroke-miterlimit:10;}
	.st20{fill:none;stroke:#ffffff;stroke-width:8;stroke-linecap:round;stroke-linejoin:round;stroke-miterlimit:10;}
</style><polygon points="71.3027,74.6269 62.1876,46.5709 56.4371,46.5709 63.7772,69.1575 "></polygon><polygon points="77.9313,38.9162 48.4332,38.9152 46.656,44.3851 70.4033,44.3851 "></polygon><polygon points="35.2927,79.3577 59.1572,62.0193 57.3806,56.5494 38.1672,70.5087 "></polygon><polygon points="36.9016,49.6319 41.5547,53.012 48.8928,30.4249 46.0173,21.5764 "></polygon><path d="M35.0419,48.2803l9.9365-30.5787c0.141-0.4324,0.5492-0.7119,1.039-0.7119c0.4897,0,0.8979,0.2795,1.0399,0.713  l3.7794,11.6295h5.4783l-7.203-22.169h-6.1888L30.6085,45.0599L35.0419,48.2803z"></path><path d="M49.1431,36.7289l32.1525,0.0015c0.4744,0,0.892,0.3033,1.0394,0.756c0.1459,0.4517-0.0134,0.9425-0.3968,1.2211  l-9.8939,7.1876l1.6931,5.2117l18.8597-13.701l-1.9132-5.8875H50.8366L49.1431,36.7289z"></path><polygon points="19.6647,46.5709 43.5297,63.9097 48.1828,60.5297 28.9684,46.5709 "></polygon><polygon points="64.0933,29.332 56.8913,7.163 51.4105,7.163 58.614,29.332 "></polygon><path d="M82.2791,84.4684L69.9649,46.5709h-5.4783l9.9349,30.5812c0.1465,0.4512-0.0134,0.942-0.3968,1.2205  c-0.1885,0.137-0.4106,0.2093-0.6426,0.2093c-0.2321,0-0.4542-0.0723-0.6427-0.2093l-9.8929-7.1877l-4.4339,3.2203l18.8591,13.7009  L82.2791,84.4684z"></path><polygon points="76.1418,58.5046 95,44.8027 93.308,39.592 74.4483,53.293 "></polygon><polygon points="75.412,89.4573 56.5529,75.7564 52.1195,78.9772 70.9777,92.6791 "></polygon><polygon points="32.6265,31.7751 9.3162,31.7751 7.6237,36.9867 30.933,36.9867 "></polygon><path d="M41.6705,65.2614L15.6578,46.3616c-0.3829-0.2786-0.5427-0.7689-0.3968-1.2225c0.1479-0.4512,0.5655-0.754,1.0395-0.754  h12.2286l1.694-5.2122H6.9132L5,45.0604l32.2371,23.4213L41.6705,65.2614z"></path><path d="M61.5617,69.4158l-1.6935-5.2102L33.8565,83.1024c-0.1885,0.1376-0.4106,0.2103-0.6432,0.2103s-0.4547-0.0727-0.6427-0.2098  c-0.3829-0.278-0.5427-0.7683-0.3973-1.221l3.7784-11.631l-4.4319-3.2208l-7.2029,22.1695l5.0068,3.6374L61.5617,69.4158z"></path><polygon points="18.0232,84.6277 22.4565,87.848 29.66,65.679 25.2256,62.4581 "></polygon></svg>